<?xml version="1.0" standalone="no"?><!DOCTYPE svg PUBLIC "-//W3C//DTD SVG 1.1//EN" "http://www.w3.org/Graphics/SVG/1.1/DTD/svg11.dtd"><svg class="icon" width="1000px" height="1000.00px" viewBox="0 0 1024 1024" version="1.1" xmlns="http://www.w3.org/2000/svg"><path d="M145.115429 755.809524v-65.536l125.610666-236.885334c6.38781-11.824762 9.99619-22.064762 10.922667-30.72a343.868952 343.868952 0 0 0 0.682667-51.882666c0-6.826667-1.121524-12.751238-3.413334-17.749334a29.817905 29.817905 0 0 0-10.24-12.288c-4.534857-3.657143-11.142095-5.461333-19.797333-5.461333-10.48381 0-18.895238 2.950095-25.258667 8.874667-5.924571 5.924571-8.874667 14.555429-8.874666 25.941333v39.594667H145.115429v-38.229334c0-14.555429 2.730667-28.208762 8.192-40.96 5.461333-12.751238 12.970667-23.893333 22.528-33.450666 9.094095-9.557333 20.016762-17.066667 32.768-22.528a96.060952 96.060952 0 0 1 40.96-8.874667c18.212571 0 33.670095 3.413333 46.421333 10.24 13.190095 6.363429 24.137143 15.238095 32.768 26.624 8.192 11.385905 14.116571 24.356571 17.749333 38.912 4.096 14.555429 6.144 30.037333 6.144 46.421333 0 11.824762-0.24381 21.845333-0.682666 30.037334a179.004952 179.004952 0 0 1-2.730667 22.528c-1.365333 7.289905-3.657143 14.555429-6.826667 21.845333-3.169524 7.289905-7.509333 16.164571-12.970666 26.624l-102.4 197.290667h125.610666V755.809524H145.115429zM534.820571 755.809524v-72.362667h-138.581333v-65.536l100.352-348.16h73.728l-104.448 348.16h68.949333V479.329524h69.632v138.581333h33.450667v65.536h-33.450667V755.809524h-69.632zM731.428571 563.297524V268.190476h42.276572v105.276953h0.828952c4.412952-6.631619 9.679238-12.01981 15.750095-16.164572 6.339048-4.412952 14.384762-6.631619 24.03962-6.631619 5.241905 0 10.48381 0.975238 15.750095 2.901333 5.241905 1.657905 9.947429 4.559238 14.09219 8.704 4.144762 4.144762 7.460571 9.532952 9.947429 16.164572 2.486857 6.339048 3.730286 14.238476 3.730286 23.625143v161.231238h-42.276572v-145.481143c0-7.728762-1.80419-13.824-5.38819-18.236952-3.584-4.412952-8.704-6.631619-15.335619-6.631619-8.021333 0-13.531429 2.486857-16.579048 7.460571-3.047619 4.973714-4.559238 12.166095-4.559238 21.552762v141.336381H731.428571z" fill="#007AFF" /></svg>